<?xml version="1.0" encoding="UTF-8" standalone="no"?>
<!DOCTYPE svg PUBLIC "-//W3C//DTD SVG 1.1//EN"
 "http://www.w3.org/Graphics/SVG/1.1/DTD/svg11.dtd">
<!-- Generated by graphviz version 2.40.1 (20161225.0304)
 -->
<!-- Title: state transitions Pages: 1 -->
<svg width="485pt" height="284pt"
 viewBox="0.00 0.00 484.64 284.00" xmlns="http://www.w3.org/2000/svg" xmlns:xlink="http://www.w3.org/1999/xlink">
<g id="graph0" class="graph" transform="scale(1 1) rotate(0) translate(4 280)">
<title>state transitions</title>
<polygon fill="#ffffff" stroke="transparent" points="-4,4 -4,-280 480.6423,-280 480.6423,4 -4,4"/>
<g id="clust1" class="cluster">
<title>cluster_blinking</title>
<path fill="none" stroke="#000000" stroke-width="2" d="M246.6423,-8C246.6423,-8 456.6423,-8 456.6423,-8 462.6423,-8 468.6423,-14 468.6423,-20 468.6423,-20 468.6423,-225 468.6423,-225 468.6423,-231 462.6423,-237 456.6423,-237 456.6423,-237 246.6423,-237 246.6423,-237 240.6423,-237 234.6423,-231 234.6423,-225 234.6423,-225 234.6423,-20 234.6423,-20 234.6423,-14 240.6423,-8 246.6423,-8"/>
<text text-anchor="start" x="330.6405" y="-218.2" font-family="Helvetica,sans-Serif" font-size="12.00" fill="#000000">Blinking</text>
</g>
<!-- initial -->
<g id="node1" class="node">
<title>initial</title>
<ellipse fill="#000000" stroke="#000000" stroke-width="2" cx="132.6423" cy="-270.5" rx="5.5" ry="5.5"/>
</g>
<!-- off -->
<g id="node3" class="node">
<title>off</title>
<polygon fill="transparent" stroke="transparent" stroke-width="2" points="160.6423,-169 104.6423,-169 104.6423,-133 160.6423,-133 160.6423,-169"/>
<text text-anchor="start" x="124.6401" y="-147.2" font-family="Helvetica,sans-Serif" font-size="12.00" fill="#000000">Off</text>
<path fill="none" stroke="#000000" stroke-width="2" d="M116.9757,-134C116.9757,-134 148.309,-134 148.309,-134 153.9757,-134 159.6423,-139.6667 159.6423,-145.3333 159.6423,-145.3333 159.6423,-156.6667 159.6423,-156.6667 159.6423,-162.3333 153.9757,-168 148.309,-168 148.309,-168 116.9757,-168 116.9757,-168 111.309,-168 105.6423,-162.3333 105.6423,-156.6667 105.6423,-156.6667 105.6423,-145.3333 105.6423,-145.3333 105.6423,-139.6667 111.309,-134 116.9757,-134"/>
</g>
<!-- initial&#45;&gt;off -->
<g id="edge1" class="edge">
<title>initial&#45;&gt;off</title>
<path fill="none" stroke="#000000" d="M132.6423,-264.7363C132.6423,-249.6055 132.6423,-207.9589 132.6423,-179.4908"/>
<polygon fill="#000000" stroke="#000000" points="136.1424,-179.308 132.6423,-169.3081 129.1424,-179.3081 136.1424,-179.308"/>
<text text-anchor="middle" x="134.0318" y="-248" font-family="Helvetica,sans-Serif" font-size="10.00" fill="#000000"> </text>
</g>
<!-- on -->
<g id="node2" class="node">
<title>on</title>
<polygon fill="transparent" stroke="transparent" stroke-width="2" points="144.6423,-105 88.6423,-105 88.6423,-69 144.6423,-69 144.6423,-105"/>
<text text-anchor="start" x="108.6395" y="-83.2" font-family="Helvetica,sans-Serif" font-size="12.00" fill="#000000">On</text>
<path fill="none" stroke="#000000" stroke-width="2" d="M100.9757,-70C100.9757,-70 132.309,-70 132.309,-70 137.9757,-70 143.6423,-75.6667 143.6423,-81.3333 143.6423,-81.3333 143.6423,-92.6667 143.6423,-92.6667 143.6423,-98.3333 137.9757,-104 132.309,-104 132.309,-104 100.9757,-104 100.9757,-104 95.309,-104 89.6423,-98.3333 89.6423,-92.6667 89.6423,-92.6667 89.6423,-81.3333 89.6423,-81.3333 89.6423,-75.6667 95.309,-70 100.9757,-70"/>
</g>
<!-- on&#45;&gt;off -->
<g id="edge2" class="edge">
<title>on&#45;&gt;off</title>
<path fill="none" stroke="#000000" d="M88.4183,-89.4627C58.1727,-92.7554 13.0722,-99.7762 2.5223,-113 -.8038,-117.1691 -.8593,-120.8758 2.5223,-125 13.9726,-138.9646 60.2016,-145.5763 94.3159,-148.6037"/>
<polygon fill="#000000" stroke="#000000" points="94.2105,-152.1067 104.4623,-149.4324 94.7804,-145.1299 94.2105,-152.1067"/>
<text text-anchor="start" x="2.6423" y="-116" font-family="Helvetica,sans-Serif" font-size="10.00" fill="#000000">OFF_SIG &#160;&#160;</text>
</g>
<!-- blinking_on -->
<g id="node5" class="node">
<title>blinking_on</title>
<polygon fill="transparent" stroke="transparent" stroke-width="2" points="320.6423,-169 264.6423,-169 264.6423,-133 320.6423,-133 320.6423,-169"/>
<text text-anchor="start" x="284.6395" y="-147.2" font-family="Helvetica,sans-Serif" font-size="12.00" fill="#000000">On</text>
<path fill="none" stroke="#000000" stroke-width="2" d="M276.9757,-134C276.9757,-134 308.309,-134 308.309,-134 313.9757,-134 319.6423,-139.6667 319.6423,-145.3333 319.6423,-145.3333 319.6423,-156.6667 319.6423,-156.6667 319.6423,-162.3333 313.9757,-168 308.309,-168 308.309,-168 276.9757,-168 276.9757,-168 271.309,-168 265.6423,-162.3333 265.6423,-156.6667 265.6423,-156.6667 265.6423,-145.3333 265.6423,-145.3333 265.6423,-139.6667 271.309,-134 276.9757,-134"/>
</g>
<!-- on&#45;&gt;blinking_on -->
<g id="edge4" class="edge">
<title>on&#45;&gt;blinking_on</title>
<path fill="none" stroke="#000000" d="M144.9599,-94.7493C161.3991,-99.4991 182.3991,-105.9991 200.6423,-113 212.5176,-117.5572 214.7213,-120.5159 226.6243,-125 238.3437,-129.4148 241.9224,-128.5867 253.6423,-133 254.0785,-133.1642 254.5166,-133.3312 254.9564,-133.5006"/>
<polygon fill="#000000" stroke="#000000" points="253.7231,-136.7778 264.3028,-137.3442 256.3854,-130.3039 253.7231,-136.7778"/>
<text text-anchor="start" x="226.6423" y="-116" font-family="Helvetica,sans-Serif" font-size="10.00" fill="#000000">BLINK_SIG &#160;&#160;</text>
</g>
<!-- off&#45;&gt;on -->
<g id="edge3" class="edge">
<title>off&#45;&gt;on</title>
<path fill="none" stroke="#000000" d="M104.6421,-143.6161C95.3246,-139.6807 85.948,-133.7714 80.5213,-125 77.3308,-119.8429 78.2474,-114.7963 81.3497,-110.1519"/>
<polygon fill="#000000" stroke="#000000" points="83.9934,-112.4497 88.2945,-102.7672 78.894,-107.6542 83.9934,-112.4497"/>
<text text-anchor="start" x="80.6423" y="-116" font-family="Helvetica,sans-Serif" font-size="10.00" fill="#000000">ON_SIG &#160;&#160;</text>
</g>
<!-- off&#45;&gt;blinking_on -->
<g id="edge5" class="edge">
<title>off&#45;&gt;blinking_on</title>
<path fill="none" stroke="#000000" d="M144.9112,-169.3348C166.6571,-199.4845 213.4598,-253.8342 253.6423,-229 271.1908,-218.1544 281.1073,-196.7569 286.5447,-179.1127"/>
<polygon fill="#000000" stroke="#000000" points="289.9757,-179.836 289.2524,-169.2659 283.2262,-177.9799 289.9757,-179.836"/>
<text text-anchor="start" x="182.6333" y="-248" font-family="Helvetica,sans-Serif" font-size="10.00" fill="#000000">BLINK_SIG &#160;&#160;</text>
</g>
<!-- blinking -->
<!-- blinking&#45;&gt;on -->
<g id="edge6" class="edge">
<title>blinking&#45;&gt;on</title>
<path fill="none" stroke="#000000" d="M234.6437,-149.2211C215.492,-144.8744 167.5538,-133.4518 153.5213,-125 147.9398,-121.6382 142.6221,-117.2252 137.85,-112.6008"/>
<polygon fill="#000000" stroke="#000000" points="140.2845,-110.0825 130.8404,-105.2804 135.2285,-114.9238 140.2845,-110.0825"/>
<text text-anchor="start" x="153.6423" y="-116" font-family="Helvetica,sans-Serif" font-size="10.00" fill="#000000">ON_SIG &#160;&#160;</text>
</g>
<!-- blinking&#45;&gt;off -->
<g id="edge7" class="edge">
<title>blinking&#45;&gt;off</title>
<path fill="none" stroke="#000000" d="M234.6468,-151C221.3404,-151 193.8293,-151 170.7284,-151"/>
<polygon fill="#000000" stroke="#000000" points="170.6846,-147.5001 160.6846,-151 170.6846,-154.5001 170.6846,-147.5001"/>
<text text-anchor="start" x="176.0823" y="-157" font-family="Helvetica,sans-Serif" font-size="10.00" fill="#000000">OFF_SIG &#160;&#160;</text>
</g>
<!-- blinking_off -->
<g id="node6" class="node">
<title>blinking_off</title>
<polygon fill="transparent" stroke="transparent" stroke-width="2" points="355.6423,-52 299.6423,-52 299.6423,-16 355.6423,-16 355.6423,-52"/>
<text text-anchor="start" x="319.6401" y="-30.2" font-family="Helvetica,sans-Serif" font-size="12.00" fill="#000000">Off</text>
<path fill="none" stroke="#000000" stroke-width="2" d="M311.9757,-17C311.9757,-17 343.309,-17 343.309,-17 348.9757,-17 354.6423,-22.6667 354.6423,-28.3333 354.6423,-28.3333 354.6423,-39.6667 354.6423,-39.6667 354.6423,-45.3333 348.9757,-51 343.309,-51 343.309,-51 311.9757,-51 311.9757,-51 306.309,-51 300.6423,-45.3333 300.6423,-39.6667 300.6423,-39.6667 300.6423,-28.3333 300.6423,-28.3333 300.6423,-22.6667 306.309,-17 311.9757,-17"/>
</g>
<!-- blinking_on&#45;&gt;blinking_off -->
<g id="edge8" class="edge">
<title>blinking_on&#45;&gt;blinking_off</title>
<path fill="none" stroke="#000000" d="M292.1655,-132.7162C291.5018,-126.2936 290.1831,-119.1499 287.6423,-113 285.9335,-108.8635 282.9612,-109.2393 281.5263,-105 276.3968,-89.8445 274.4118,-83.3312 281.5263,-69 283.9844,-64.0485 287.5149,-59.6091 291.5436,-55.6903"/>
<polygon fill="#000000" stroke="#000000" points="293.8385,-58.3333 299.2091,-49.2005 289.3154,-52.9908 293.8385,-58.3333"/>
<text text-anchor="start" x="280.6423" y="-84" font-family="Helvetica,sans-Serif" font-size="10.00" fill="#000000">TIMEOUT_SIG &#160;&#160;</text>
</g>
<!-- blinking_off&#45;&gt;blinking_on -->
<g id="edge9" class="edge">
<title>blinking_off&#45;&gt;blinking_on</title>
<path fill="none" stroke="#000000" d="M348.1877,-52.2726C352.4493,-57.2332 356.34,-62.9281 358.6423,-69 364.3151,-83.9606 366.0458,-90.8159 358.6423,-105 352.2565,-117.2346 340.9673,-126.8778 329.5114,-134.1073"/>
<polygon fill="#000000" stroke="#000000" points="327.6868,-131.1194 320.797,-139.1681 331.2022,-137.1727 327.6868,-131.1194"/>
<text text-anchor="start" x="362.6423" y="-84" font-family="Helvetica,sans-Serif" font-size="10.00" fill="#000000">TIMEOUT_SIG &#160;&#160;</text>
</g>
</g>
</svg>
