<?xml version="1.0" encoding="UTF-8" standalone="no"?>
<!DOCTYPE svg PUBLIC "-//W3C//DTD SVG 1.1//EN"
 "http://www.w3.org/Graphics/SVG/1.1/DTD/svg11.dtd">
<!-- Generated by graphviz version 2.40.1 (20161225.0304)
 -->
<!-- Title: state transitions Pages: 1 -->
<svg width="580pt" height="386pt"
 viewBox="0.00 0.00 580.32 386.00" xmlns="http://www.w3.org/2000/svg" xmlns:xlink="http://www.w3.org/1999/xlink">
<g id="graph0" class="graph" transform="scale(1 1) rotate(0) translate(4 382)">
<title>state transitions</title>
<polygon fill="#ffffff" stroke="transparent" points="-4,4 -4,-382 576.3185,-382 576.3185,4 -4,4"/>
<g id="clust1" class="cluster">
<title>cluster_online</title>
<path fill="none" stroke="#000000" stroke-width="2" d="M114,-47C114,-47 210,-47 210,-47 216,-47 222,-53 222,-59 222,-59 222,-210 222,-210 222,-216 216,-222 210,-222 210,-222 114,-222 114,-222 108,-222 102,-216 102,-210 102,-210 102,-59 102,-59 102,-53 108,-47 114,-47"/>
<text text-anchor="start" x="145.9956" y="-203.2" font-family="Helvetica,sans-Serif" font-size="12.00" fill="#000000">online</text>
</g>
<!-- initial -->
<g id="node1" class="node">
<title>initial</title>
<ellipse fill="#000000" stroke="#000000" stroke-width="2" cx="142" cy="-372.5" rx="5.5" ry="5.5"/>
</g>
<!-- ^initOk? -->
<g id="node3" class="node">
<title>^initOk?</title>
<polygon fill="transparent" stroke="#000000" stroke-width="2" points="142,-339 129.5,-326.5 142,-314 154.5,-326.5 142,-339"/>
<text text-anchor="middle" x="142" y="-323.5" font-family="Helvetica,sans-Serif" font-size="10.00" fill="#000000"> </text>
</g>
<!-- initial&#45;&gt;^initOk? -->
<g id="edge2" class="edge">
<title>initial&#45;&gt;^initOk?</title>
<path fill="none" stroke="#000000" d="M142,-366.8595C142,-362.4947 142,-356.1356 142,-349.7508"/>
<polygon fill="#000000" stroke="#000000" points="145.5001,-349.3288 142,-339.3288 138.5001,-349.3289 145.5001,-349.3288"/>
<text text-anchor="middle" x="143.3895" y="-350" font-family="Helvetica,sans-Serif" font-size="10.00" fill="#000000"> </text>
</g>
<!-- offline -->
<g id="node2" class="node">
<title>offline</title>
<polygon fill="transparent" stroke="transparent" stroke-width="2" points="56,-286 0,-286 0,-250 56,-250 56,-286"/>
<text text-anchor="start" x="11.9962" y="-264.2" font-family="Helvetica,sans-Serif" font-size="12.00" fill="#000000">offline</text>
<path fill="none" stroke="#000000" stroke-width="2" d="M12.3333,-251C12.3333,-251 43.6667,-251 43.6667,-251 49.3333,-251 55,-256.6667 55,-262.3333 55,-262.3333 55,-273.6667 55,-273.6667 55,-279.3333 49.3333,-285 43.6667,-285 43.6667,-285 12.3333,-285 12.3333,-285 6.6667,-285 1,-279.3333 1,-273.6667 1,-273.6667 1,-262.3333 1,-262.3333 1,-256.6667 6.6667,-251 12.3333,-251"/>
</g>
<!-- offline&#45;&gt;offline -->
<g id="edge9" class="edge">
<title>offline&#45;&gt;offline</title>
<path fill="none" stroke="#000000" d="M56.0183,-273.9381C67.888,-274.3856 78,-272.4063 78,-268 78,-264.9707 73.2205,-263.0885 66.3762,-262.3533"/>
<polygon fill="#000000" stroke="#000000" points="66.1128,-258.8446 56.0183,-262.0619 65.9158,-265.8419 66.1128,-258.8446"/>
<text text-anchor="start" x="78" y="-265" font-family="Helvetica,sans-Serif" font-size="10.00" fill="#000000">TIMEOUT_SIG [hw init failed] &#160;&#160;</text>
</g>
<!-- spin -->
<g id="node6" class="node">
<title>spin</title>
<polygon fill="transparent" stroke="transparent" stroke-width="2" points="192,-184 136,-184 136,-148 192,-148 192,-184"/>
<text text-anchor="start" x="152.9978" y="-162.2" font-family="Helvetica,sans-Serif" font-size="12.00" fill="#000000">spin</text>
<path fill="none" stroke="#000000" stroke-width="2" d="M148.3333,-149C148.3333,-149 179.6667,-149 179.6667,-149 185.3333,-149 191,-154.6667 191,-160.3333 191,-160.3333 191,-171.6667 191,-171.6667 191,-177.3333 185.3333,-183 179.6667,-183 179.6667,-183 148.3333,-183 148.3333,-183 142.6667,-183 137,-177.3333 137,-171.6667 137,-171.6667 137,-160.3333 137,-160.3333 137,-154.6667 142.6667,-149 148.3333,-149"/>
</g>
<!-- offline&#45;&gt;spin -->
<g id="edge8" class="edge">
<title>offline&#45;&gt;spin</title>
<path fill="none" stroke="#000000" d="M52.001,-249.9992C74.102,-233.4235 107.0701,-208.6974 131.5202,-190.3599"/>
<polygon fill="#000000" stroke="#000000" points="133.8815,-192.9639 139.7815,-184.1639 129.6814,-187.3639 133.8815,-192.9639"/>
<text text-anchor="start" x="76" y="-233" font-family="Helvetica,sans-Serif" font-size="10.00" fill="#000000">TIMEOUT_SIG [hw init ok] &#160;&#160;</text>
</g>
<!-- ^initOk?&#45;&gt;offline -->
<g id="edge7" class="edge">
<title>^initOk?&#45;&gt;offline</title>
<path fill="none" stroke="#000000" d="M133.4315,-322.103C119.1059,-314.7517 89.4787,-299.5483 65.269,-287.1249"/>
<polygon fill="#000000" stroke="#000000" points="66.7937,-283.9734 56.2988,-282.5217 63.5978,-290.2013 66.7937,-283.9734"/>
<text text-anchor="start" x="102" y="-297" font-family="Helvetica,sans-Serif" font-size="10.00" fill="#000000">[failed] &#160;&#160;</text>
</g>
<!-- ^initOk?&#45;&gt;^initOk? -->
<g id="edge1" class="edge">
<title>^initOk?&#45;&gt;^initOk?</title>
<path fill="none" stroke="transparent" d="M151.1861,-329.917C162.7413,-332.6664 176.5,-331.5273 176.5,-326.5 176.5,-322.8866 169.3922,-321.2819 161.1036,-321.686"/>
<polygon fill="transparent" stroke="transparent" points="160.6001,-318.2222 151.1861,-323.083 161.5766,-325.1538 160.6001,-318.2222"/>
<text text-anchor="start" x="176.5" y="-323.5" font-family="Helvetica,sans-Serif" font-size="10.00" fill="#000000">initialize CAN hardware</text>
</g>
<!-- ^initOk?&#45;&gt;spin -->
<g id="edge3" class="edge">
<title>^initOk?&#45;&gt;spin</title>
<path fill="none" stroke="#000000" d="M152.9484,-324.8121C171.4069,-321.3111 208.2447,-311.3537 224,-286 232.4449,-272.4102 229.0596,-265.1789 224,-250 219.0809,-235.2427 212.113,-234.6067 203,-222 196.0386,-212.3699 188.5457,-201.6899 182.0062,-192.2608"/>
<polygon fill="#000000" stroke="#000000" points="184.8755,-190.2565 176.3112,-184.0192 179.1166,-194.2359 184.8755,-190.2565"/>
<text text-anchor="start" x="229" y="-265" font-family="Helvetica,sans-Serif" font-size="10.00" fill="#000000">[ok] &#160;&#160;</text>
</g>
<!-- final -->
<g id="node4" class="node">
<title>final</title>
<ellipse fill="#000000" stroke="#000000" stroke-width="2" cx="162" cy="-9.5" rx="5.5" ry="5.5"/>
<ellipse fill="none" stroke="#000000" stroke-width="2" cx="162" cy="-9.5" rx="9.5" ry="9.5"/>
</g>
<!-- online -->
<!-- aboutToRestart -->
<g id="node7" class="node">
<title>aboutToRestart</title>
<polygon fill="transparent" stroke="transparent" stroke-width="2" points="214,-91 110,-91 110,-55 214,-55 214,-91"/>
<text text-anchor="start" x="120.6558" y="-69.2" font-family="Helvetica,sans-Serif" font-size="12.00" fill="#000000">aboutToRestart</text>
<path fill="none" stroke="#000000" stroke-width="2" d="M122.3333,-56C122.3333,-56 201.6667,-56 201.6667,-56 207.3333,-56 213,-61.6667 213,-67.3333 213,-67.3333 213,-78.6667 213,-78.6667 213,-84.3333 207.3333,-90 201.6667,-90 201.6667,-90 122.3333,-90 122.3333,-90 116.6667,-90 111,-84.3333 111,-78.6667 111,-78.6667 111,-67.3333 111,-67.3333 111,-61.6667 116.6667,-56 122.3333,-56"/>
</g>
<!-- spin&#45;&gt;aboutToRestart -->
<g id="edge10" class="edge">
<title>spin&#45;&gt;aboutToRestart</title>
<path fill="none" stroke="#000000" d="M152.8666,-147.9481C147.2074,-136.6184 142.116,-121.6237 145.214,-108 145.7762,-105.5275 146.5358,-103.0258 147.4225,-100.5568"/>
<polygon fill="#000000" stroke="#000000" points="150.654,-101.9014 151.3244,-91.3278 144.2065,-99.1755 150.654,-101.9014"/>
<text text-anchor="start" x="146" y="-111" font-family="Helvetica,sans-Serif" font-size="10.00" fill="#000000">RESTART_SIG &#160;&#160;</text>
</g>
<!-- i_note_tr_spin_spin_3 -->
<!-- spin&#45;&gt;i_note_tr_spin_spin_3 -->
<g id="edge4" class="edge">
<title>spin&#45;&gt;i_note_tr_spin_spin_3</title>
<path fill="none" stroke="#000000" d="M176.8047,-147.6348C182.5537,-140.5886 189.8746,-133.0382 198,-128 209.3632,-120.9542 215.196,-126.2794 227,-120 230.1654,-118.3161 233.1507,-114.9853 233.8476,-114.1789"/>
</g>
<!-- aboutToRestart&#45;&gt;final -->
<g id="edge11" class="edge">
<title>aboutToRestart&#45;&gt;final</title>
<path fill="none" stroke="#000000" d="M162,-54.9733C162,-47.0074 162,-37.6145 162,-29.4397"/>
<polygon fill="#000000" stroke="#000000" points="165.5001,-29.2957 162,-19.2957 158.5001,-29.2958 165.5001,-29.2957"/>
<text text-anchor="start" x="162" y="-30" font-family="Helvetica,sans-Serif" font-size="10.00" fill="#000000">TIMEOUT_SIG / restart() &#160;&#160;</text>
</g>
<!-- i_note_tr_spin_spin_3&#45;&gt;spin -->
<g id="edge5" class="edge">
<title>i_note_tr_spin_spin_3&#45;&gt;spin</title>
<path fill="none" stroke="#000000" d="M233.831,-114.1535C233.0621,-114.8499 229.8111,-117.7745 227,-120 217.72,-127.3469 207.4335,-135.0388 197.9093,-141.9839"/>
<polygon fill="#000000" stroke="#000000" points="195.8291,-139.1689 189.7803,-147.8674 199.9333,-144.8395 195.8291,-139.1689"/>
<text text-anchor="start" x="215" y="-131" font-family="Helvetica,sans-Serif" font-size="10.00" fill="#000000">TIMEOUT_SIG / spin() &#160;&#160;</text>
</g>
<!-- note_tr_spin_spin_3 -->
<g id="node9" class="node">
<title>note_tr_spin_spin_3</title>
<polygon fill="#ffffcc" stroke="#000000" points="566.1372,-91 235.8628,-91 235.8628,-55 572.1372,-55 572.1372,-85 566.1372,-91"/>
<polyline fill="none" stroke="#000000" points="566.1372,-91 566.1372,-85 "/>
<polyline fill="none" stroke="#000000" points="572.1372,-85 566.1372,-85 "/>
<text text-anchor="start" x="243.6815" y="-76" font-family="Helvetica,sans-Serif" font-size="10.00" fill="#000000">Every 25 ms it sends pending messages and reads incoming messages.</text>
<text text-anchor="start" x="243.6815" y="-64" font-family="Helvetica,sans-Serif" font-size="10.00" fill="#000000">Every 350 ms it sends a node status message as well.</text>
</g>
<!-- i_note_tr_spin_spin_3&#45;&gt;note_tr_spin_spin_3 -->
<g id="edge6" class="edge">
<title>i_note_tr_spin_spin_3&#45;&gt;note_tr_spin_spin_3</title>
<path fill="none" stroke="#000000" stroke-dasharray="5,2" d="M234.1232,-113.9703C236.868,-113.3083 284.9827,-101.7042 329.3041,-91.0149"/>
</g>
</g>
</svg>
